<svg width="128" height="44" viewBox="0 0 128 44" fill="none" xmlns="http://www.w3.org/2000/svg">
<path d="M42.8438 25.3239V35H46.0692V25.3239L54.0667 11.2048H50.5452L45.2793 20.7163C44.8514 21.5062 44.7856 21.7036 44.4894 22.296C44.2261 21.7365 44.0286 21.2758 43.6995 20.7163L38.4007 11.2048H34.7804L42.8438 25.3239ZM57.3219 35.3949C59.9219 35.3949 62.127 34.243 62.9498 32.4L63.2789 35H65.9119V24.8961C65.9119 20.5517 63.2131 18.4454 59.2308 18.4454C55.0839 18.4454 52.3193 20.6505 52.3193 24.0075H55.0181C55.0181 22.0657 56.4991 20.9137 59.0991 20.9137C61.2713 20.9137 62.884 21.8682 62.884 24.567V25.0277L57.8156 25.4227C54.0307 25.7189 51.8256 27.5619 51.8256 30.524C51.8256 33.4531 53.8662 35.3949 57.3219 35.3949ZM58.2105 32.9924C56.2029 32.9924 54.9523 32.1367 54.9523 30.4253C54.9523 28.8455 56.0713 27.7923 58.8029 27.529L62.9169 27.1999V28.0556C62.9169 31.0835 61.1397 32.9924 58.2105 32.9924ZM73.29 35V16.6023L85.4674 35H88.6928V11.2048H85.4674V29.6025L73.29 11.2048H70.0647V35H73.29ZM106.148 24.8961V21.9669H96.8014V14.1668H107.926V11.2048H93.576V35H96.8014V24.8961H106.148ZM108.87 14.1668H116.045V35H119.27V14.1668H126.412V11.2048H108.87V14.1668Z" fill="#D78BFF"/>
<path d="M42.8438 25.3239V35H46.0692V25.3239L54.0667 11.2048H50.5452L45.2793 20.7163C44.8514 21.5062 44.7856 21.7036 44.4894 22.296C44.2261 21.7365 44.0286 21.2758 43.6995 20.7163L38.4007 11.2048H34.7804L42.8438 25.3239ZM57.3219 35.3949C59.9219 35.3949 62.127 34.243 62.9498 32.4L63.2789 35H65.9119V24.8961C65.9119 20.5517 63.2131 18.4454 59.2308 18.4454C55.0839 18.4454 52.3193 20.6505 52.3193 24.0075H55.0181C55.0181 22.0657 56.4991 20.9137 59.0991 20.9137C61.2713 20.9137 62.884 21.8682 62.884 24.567V25.0277L57.8156 25.4227C54.0307 25.7189 51.8256 27.5619 51.8256 30.524C51.8256 33.4531 53.8662 35.3949 57.3219 35.3949ZM58.2105 32.9924C56.2029 32.9924 54.9523 32.1367 54.9523 30.4253C54.9523 28.8455 56.0713 27.7923 58.8029 27.529L62.9169 27.1999V28.0556C62.9169 31.0835 61.1397 32.9924 58.2105 32.9924ZM73.29 35V16.6023L85.4674 35H88.6928V11.2048H85.4674V29.6025L73.29 11.2048H70.0647V35H73.29ZM106.148 24.8961V21.9669H96.8014V14.1668H107.926V11.2048H93.576V35H96.8014V24.8961H106.148ZM108.87 14.1668H116.045V35H119.27V14.1668H126.412V11.2048H108.87V14.1668Z" fill="url(#paint0_linear_30_297)"/>
<path d="M21.0848 20.3405C21.0848 20.328 21.0817 20.3156 21.0786 20.3031C21.0786 20.2969 21.0755 20.2906 21.0755 20.2844V20.275L21.063 20.2376V20.2314L21.0474 20.1846V20.1691L21.0194 20.1129V20.0662L20.9477 19.9945C20.9477 19.9914 20.9445 19.9914 20.9445 19.9882L20.9383 19.9727L20.8728 19.9072C20.8604 19.8947 20.8479 19.8823 20.8354 19.876C20.8261 19.8667 20.8105 19.8573 20.7949 19.8448L7.21849 10.1309C7.20291 10.1185 7.19044 10.1091 7.17797 10.1029C7.15926 10.0904 7.14056 10.0811 7.11874 10.0717C7.1125 10.0686 7.10627 10.0655 7.10003 10.0623C7.08444 10.053 7.06262 10.0436 7.03768 10.0374C7.02833 10.0343 7.01898 10.0312 7.00651 10.0281C6.99404 10.0249 6.98157 10.0187 6.97222 10.0187L6.93481 10.0062H6.90987C6.90675 10.0062 6.90363 10.0062 6.90363 10.0062C6.89116 10.0031 6.86934 10 6.8444 10H6.76647C6.74153 10 6.7197 10.0031 6.70723 10.0062C6.69165 10.0094 6.67606 10.0094 6.66359 10.0125C6.65736 10.0125 6.65424 10.0156 6.648 10.0156L6.63865 10.0187C6.6293 10.0218 6.61683 10.0249 6.60748 10.0281C6.60124 10.0312 6.59812 10.0312 6.59189 10.0343C6.45472 10.0779 6.33003 10.1652 6.24274 10.2806L6.18039 10.3647V10.3803C6.18039 10.3803 6.18039 10.3834 6.17727 10.3834L0.0795799 22.1829C-0.00459067 22.345 -0.0232954 22.5289 0.0297009 22.7004L2.45194 30.8369C2.46441 30.8774 2.47688 30.9179 2.4987 30.9554C2.50182 30.9647 2.50806 30.9741 2.51429 30.9834C2.52676 31.0084 2.53923 31.0271 2.5517 31.0426L8.34077 39.3942C8.43429 39.5376 8.57458 39.6405 8.7398 39.6842L8.75227 39.6873C8.76162 39.6904 8.77097 39.6935 8.78033 39.6935L8.81773 39.7029H8.84579C8.85514 39.7029 8.86138 39.706 8.87073 39.706C8.8832 39.7091 8.90191 39.7091 8.92373 39.7091H8.94243C8.9549 39.7091 8.97361 39.7091 8.99855 39.706L9.02037 39.7029C9.05154 39.6997 9.0796 39.6935 9.10454 39.6873L9.12012 39.6842H9.12324C9.14195 39.681 9.16065 39.6717 9.17936 39.6655C9.18559 39.6623 9.18871 39.6623 9.19494 39.6592C9.2043 39.6561 9.21677 39.6499 9.22612 39.6468C9.22612 39.6468 9.22924 39.6468 9.22924 39.6436L9.28223 39.6249L9.31652 39.5906L9.32276 39.5875L20.7419 31.4136L20.7637 31.398L20.7731 31.3887L20.7762 31.3856L20.7855 31.3793L20.8479 31.317C20.8697 31.2952 20.8884 31.2702 20.8978 31.2546C20.9009 31.2484 20.9071 31.2422 20.9102 31.2359C20.9289 31.2079 20.9414 31.1829 20.9508 31.1673C20.957 31.158 20.9601 31.1486 20.9632 31.1424L21.0038 31.0832V31.0458L21.0287 31.0208V30.9086C21.0287 30.8961 21.0318 30.8774 21.0318 30.8587L21.0817 20.4278V20.4216C21.0911 20.406 21.0911 20.3779 21.0848 20.3405ZM8.15372 36.6727L4.50633 31.4105L7.9885 31.5757L8.15372 36.6727ZM19.6944 21.1199L19.6508 30.1448L9.23859 30.2072L7.34007 21.0263L19.6944 21.1199ZM6.33003 23.0464L7.80457 30.1666L4.07612 29.989L6.33003 23.0464ZM7.19979 19.6266L7.45542 12.0201L18.1918 19.7108L7.19979 19.6266ZM5.99958 13.769L5.78136 20.1971L3.15648 28.2931L1.45125 22.5726L5.99958 13.769ZM18.1513 31.5539L9.58774 37.6859L9.39134 31.6038L18.1513 31.5539Z" fill="#FF8BDF"/>
<path d="M21.0848 20.3405C21.0848 20.328 21.0817 20.3156 21.0786 20.3031C21.0786 20.2969 21.0755 20.2906 21.0755 20.2844V20.275L21.063 20.2376V20.2314L21.0474 20.1846V20.1691L21.0194 20.1129V20.0662L20.9477 19.9945C20.9477 19.9914 20.9445 19.9914 20.9445 19.9882L20.9383 19.9727L20.8728 19.9072C20.8604 19.8947 20.8479 19.8823 20.8354 19.876C20.8261 19.8667 20.8105 19.8573 20.7949 19.8448L7.21849 10.1309C7.20291 10.1185 7.19044 10.1091 7.17797 10.1029C7.15926 10.0904 7.14056 10.0811 7.11874 10.0717C7.1125 10.0686 7.10627 10.0655 7.10003 10.0623C7.08444 10.053 7.06262 10.0436 7.03768 10.0374C7.02833 10.0343 7.01898 10.0312 7.00651 10.0281C6.99404 10.0249 6.98157 10.0187 6.97222 10.0187L6.93481 10.0062H6.90987C6.90675 10.0062 6.90363 10.0062 6.90363 10.0062C6.89116 10.0031 6.86934 10 6.8444 10H6.76647C6.74153 10 6.7197 10.0031 6.70723 10.0062C6.69165 10.0094 6.67606 10.0094 6.66359 10.0125C6.65736 10.0125 6.65424 10.0156 6.648 10.0156L6.63865 10.0187C6.6293 10.0218 6.61683 10.0249 6.60748 10.0281C6.60124 10.0312 6.59812 10.0312 6.59189 10.0343C6.45472 10.0779 6.33003 10.1652 6.24274 10.2806L6.18039 10.3647V10.3803C6.18039 10.3803 6.18039 10.3834 6.17727 10.3834L0.0795799 22.1829C-0.00459067 22.345 -0.0232954 22.5289 0.0297009 22.7004L2.45194 30.8369C2.46441 30.8774 2.47688 30.9179 2.4987 30.9554C2.50182 30.9647 2.50806 30.9741 2.51429 30.9834C2.52676 31.0084 2.53923 31.0271 2.5517 31.0426L8.34077 39.3942C8.43429 39.5376 8.57458 39.6405 8.7398 39.6842L8.75227 39.6873C8.76162 39.6904 8.77097 39.6935 8.78033 39.6935L8.81773 39.7029H8.84579C8.85514 39.7029 8.86138 39.706 8.87073 39.706C8.8832 39.7091 8.90191 39.7091 8.92373 39.7091H8.94243C8.9549 39.7091 8.97361 39.7091 8.99855 39.706L9.02037 39.7029C9.05154 39.6997 9.0796 39.6935 9.10454 39.6873L9.12012 39.6842H9.12324C9.14195 39.681 9.16065 39.6717 9.17936 39.6655C9.18559 39.6623 9.18871 39.6623 9.19494 39.6592C9.2043 39.6561 9.21677 39.6499 9.22612 39.6468C9.22612 39.6468 9.22924 39.6468 9.22924 39.6436L9.28223 39.6249L9.31652 39.5906L9.32276 39.5875L20.7419 31.4136L20.7637 31.398L20.7731 31.3887L20.7762 31.3856L20.7855 31.3793L20.8479 31.317C20.8697 31.2952 20.8884 31.2702 20.8978 31.2546C20.9009 31.2484 20.9071 31.2422 20.9102 31.2359C20.9289 31.2079 20.9414 31.1829 20.9508 31.1673C20.957 31.158 20.9601 31.1486 20.9632 31.1424L21.0038 31.0832V31.0458L21.0287 31.0208V30.9086C21.0287 30.8961 21.0318 30.8774 21.0318 30.8587L21.0817 20.4278V20.4216C21.0911 20.406 21.0911 20.3779 21.0848 20.3405ZM8.15372 36.6727L4.50633 31.4105L7.9885 31.5757L8.15372 36.6727ZM19.6944 21.1199L19.6508 30.1448L9.23859 30.2072L7.34007 21.0263L19.6944 21.1199ZM6.33003 23.0464L7.80457 30.1666L4.07612 29.989L6.33003 23.0464ZM7.19979 19.6266L7.45542 12.0201L18.1918 19.7108L7.19979 19.6266ZM5.99958 13.769L5.78136 20.1971L3.15648 28.2931L1.45125 22.5726L5.99958 13.769ZM18.1513 31.5539L9.58774 37.6859L9.39134 31.6038L18.1513 31.5539Z" fill="url(#paint1_linear_30_297)"/>
<defs>
<linearGradient id="paint0_linear_30_297" x1="80.9513" y1="12.8679" x2="80.9513" y2="44" gradientUnits="userSpaceOnUse">
<stop stop-color="#FF8BDF"/>
<stop offset="1" stop-color="#9938CD"/>
</linearGradient>
<linearGradient id="paint1_linear_30_297" x1="19.3893" y1="6.23907" x2="-1.87487" y2="38.1353" gradientUnits="userSpaceOnUse">
<stop offset="0.0001" stop-color="#FF8BDF"/>
<stop offset="1" stop-color="#7D2BA9"/>
</linearGradient>
</defs>
</svg>
